<?xml version="1.0" encoding="utf-8" standalone="no"?>
<!DOCTYPE svg PUBLIC "-//W3C//DTD SVG 1.1//EN"
  "http://www.w3.org/Graphics/SVG/1.1/DTD/svg11.dtd">
<svg xmlns:xlink="http://www.w3.org/1999/xlink" width="436.453203pt" height="219.940408pt" viewBox="0 0 436.453203 219.940408" xmlns="http://www.w3.org/2000/svg" version="1.1">
 <metadata>
  <rdf:RDF xmlns:dc="http://purl.org/dc/elements/1.1/" xmlns:cc="http://creativecommons.org/ns#" xmlns:rdf="http://www.w3.org/1999/02/22-rdf-syntax-ns#">
   <cc:Work>
    <dc:type rdf:resource="http://purl.org/dc/dcmitype/StillImage"/>
    <dc:date>2026-07-10T12:50:26.604479</dc:date>
    <dc:format>image/svg+xml</dc:format>
    <dc:creator>
     <cc:Agent>
      <dc:title>Matplotlib v3.11.0, https://matplotlib.org/</dc:title>
     </cc:Agent>
    </dc:creator>
   </cc:Work>
  </rdf:RDF>
 </metadata>
 <defs>
  <style type="text/css">*{stroke-linejoin: round; stroke-linecap: butt}</style>
 </defs>
 <g id="figure_1">
  <g id="patch_1">
   <path d="M 0 219.940408 
L 436.453203 219.940408 
L 436.453203 0 
L 0 0 
z
" style="fill: #ffffff"/>
  </g>
  <g id="axes_1">
   <g id="patch_2">
    <path d="M 38.653203 165.550312 
L 216.198658 165.550312 
L 216.198658 21.406312 
L 38.653203 21.406312 
z
" style="fill: #ffffff"/>
   </g>
   <g id="patch_3">
    <path d="M 46.723451 165.550312 
L 73.624278 165.550312 
L 73.624278 47.881741 
L 46.723451 47.881741 
z
" clip-path="url(#pe2f8473452)" style="fill: #0072b2"/>
   </g>
   <g id="patch_4">
    <path d="M 80.349484 165.550312 
L 107.250311 165.550312 
L 107.250311 77.298884 
L 80.349484 77.298884 
z
" clip-path="url(#pe2f8473452)" style="fill: #0072b2"/>
   </g>
   <g id="patch_5">
    <path d="M 113.975517 165.550312 
L 140.876344 165.550312 
L 140.876344 77.298884 
L 113.975517 77.298884 
z
" clip-path="url(#pe2f8473452)" style="fill: #0072b2"/>
   </g>
   <g id="patch_6">
    <path d="M 147.60155 165.550312 
L 174.502377 165.550312 
L 174.502377 77.298884 
L 147.60155 77.298884 
z
" clip-path="url(#pe2f8473452)" style="fill: #0072b2"/>
   </g>
   <g id="patch_7">
    <path d="M 181.227583 165.550312 
L 208.12841 165.550312 
L 208.12841 77.298884 
L 181.227583 77.298884 
z
" clip-path="url(#pe2f8473452)" style="fill: #0072b2"/>
   </g>
   <g id="patch_8">
    <path d="M 46.723451 47.881741 
L 73.624278 47.881741 
L 73.624278 28.270312 
L 46.723451 28.270312 
z
" clip-path="url(#pe2f8473452)" style="fill: #e69f00"/>
   </g>
   <g id="patch_9">
    <path d="M 80.349484 77.298884 
L 107.250311 77.298884 
L 107.250311 28.270312 
L 80.349484 28.270312 
z
" clip-path="url(#pe2f8473452)" style="fill: #e69f00"/>
   </g>
   <g id="patch_10">
    <path d="M 113.975517 77.298884 
L 140.876344 77.298884 
L 140.876344 57.687455 
L 113.975517 57.687455 
z
" clip-path="url(#pe2f8473452)" style="fill: #e69f00"/>
   </g>
   <g id="patch_11">
    <path d="M 147.60155 77.298884 
L 174.502377 77.298884 
L 174.502377 57.687455 
L 147.60155 57.687455 
z
" clip-path="url(#pe2f8473452)" style="fill: #e69f00"/>
   </g>
   <g id="patch_12">
    <path d="M 181.227583 77.298884 
L 208.12841 77.298884 
L 208.12841 57.687455 
L 181.227583 57.687455 
z
" clip-path="url(#pe2f8473452)" style="fill: #e69f00"/>
   </g>
   <g id="matplotlib.axis_1">
    <g id="xtick_1">
     <g id="line2d_1">
      <path d="M 60.173864 165.550312 
L 60.173864 21.406312 
" clip-path="url(#pe2f8473452)" style="fill: none; stroke: #b0b0b0; stroke-opacity: 0.25; stroke-width: 0.5; stroke-linecap: square"/>
     </g>
     <g id="line2d_2">
      <defs>
       <path id="mf4aefbf04d" d="M 0 0 
L 0 3.5 
" style="stroke: #000000; stroke-width: 0.8"/>
      </defs>
      <g>
       <use xlink:href="#mf4aefbf04d" x="60.173864" y="165.550312" style="stroke: #000000; stroke-width: 0.8"/>
      </g>
     </g>
     <g id="text_1">
      <!-- plain LLM -->
      <g transform="translate(19.414486 193.542539) rotate(-20) scale(0.09 -0.09)">
       <defs>
        <path id="DejaVuSans-53" d="M 1159 525 
L 1159 -1331 
L 581 -1331 
L 581 3500 
L 1159 3500 
L 1159 2969 
Q 1341 3281 1617 3432 
Q 1894 3584 2278 3584 
Q 2916 3584 3314 3078 
Q 3713 2572 3713 1747 
Q 3713 922 3314 415 
Q 2916 -91 2278 -91 
Q 1894 -91 1617 61 
Q 1341 213 1159 525 
z
M 3116 1747 
Q 3116 2381 2855 2742 
Q 2594 3103 2138 3103 
Q 1681 3103 1420 2742 
Q 1159 2381 1159 1747 
Q 1159 1113 1420 752 
Q 1681 391 2138 391 
Q 2594 391 2855 752 
Q 3116 1113 3116 1747 
z
" transform="scale(0.015625)"/>
        <path id="DejaVuSans-4f" d="M 603 4863 
L 1178 4863 
L 1178 0 
L 603 0 
L 603 4863 
z
" transform="scale(0.015625)"/>
        <path id="DejaVuSans-44" d="M 2194 1759 
Q 1497 1759 1228 1600 
Q 959 1441 959 1056 
Q 959 750 1161 570 
Q 1363 391 1709 391 
Q 2188 391 2477 730 
Q 2766 1069 2766 1631 
L 2766 1759 
L 2194 1759 
z
M 3341 1997 
L 3341 0 
L 2766 0 
L 2766 531 
Q 2569 213 2275 61 
Q 1981 -91 1556 -91 
Q 1019 -91 701 211 
Q 384 513 384 1019 
Q 384 1609 779 1909 
Q 1175 2209 1959 2209 
L 2766 2209 
L 2766 2266 
Q 2766 2663 2505 2880 
Q 2244 3097 1772 3097 
Q 1472 3097 1187 3025 
Q 903 2953 641 2809 
L 641 3341 
Q 956 3463 1253 3523 
Q 1550 3584 1831 3584 
Q 2591 3584 2966 3190 
Q 3341 2797 3341 1997 
z
" transform="scale(0.015625)"/>
        <path id="DejaVuSans-4c" d="M 603 3500 
L 1178 3500 
L 1178 0 
L 603 0 
L 603 3500 
z
M 603 4863 
L 1178 4863 
L 1178 4134 
L 603 4134 
L 603 4863 
z
" transform="scale(0.015625)"/>
        <path id="DejaVuSans-51" d="M 3513 2113 
L 3513 0 
L 2938 0 
L 2938 2094 
Q 2938 2591 2744 2837 
Q 2550 3084 2163 3084 
Q 1697 3084 1428 2787 
Q 1159 2491 1159 1978 
L 1159 0 
L 581 0 
L 581 3500 
L 1159 3500 
L 1159 2956 
Q 1366 3272 1645 3428 
Q 1925 3584 2291 3584 
Q 2894 3584 3203 3211 
Q 3513 2838 3513 2113 
z
" transform="scale(0.015625)"/>
        <path id="DejaVuSans-3" transform="scale(0.015625)"/>
        <path id="DejaVuSans-2f" d="M 628 4666 
L 1259 4666 
L 1259 531 
L 3531 531 
L 3531 0 
L 628 0 
L 628 4666 
z
" transform="scale(0.015625)"/>
        <path id="DejaVuSans-30" d="M 628 4666 
L 1569 4666 
L 2759 1491 
L 3956 4666 
L 4897 4666 
L 4897 0 
L 4281 0 
L 4281 4097 
L 3078 897 
L 2444 897 
L 1241 4097 
L 1241 0 
L 628 0 
L 628 4666 
z
" transform="scale(0.015625)"/>
       </defs>
       <use xlink:href="#DejaVuSans-53"/>
       <use xlink:href="#DejaVuSans-4f" transform="translate(63.484375 0)"/>
       <use xlink:href="#DejaVuSans-44" transform="translate(91.265625 0)"/>
       <use xlink:href="#DejaVuSans-4c" transform="translate(152.546875 0)"/>
       <use xlink:href="#DejaVuSans-51" transform="translate(180.328125 0)"/>
       <use xlink:href="#DejaVuSans-3" transform="translate(243.703125 0)"/>
       <use xlink:href="#DejaVuSans-2f" transform="translate(275.484375 0)"/>
       <use xlink:href="#DejaVuSans-2f" transform="translate(331.203125 0)"/>
       <use xlink:href="#DejaVuSans-30" transform="translate(386.921875 0)"/>
      </g>
     </g>
    </g>
    <g id="xtick_2">
     <g id="line2d_3">
      <path d="M 93.799897 165.550312 
L 93.799897 21.406312 
" clip-path="url(#pe2f8473452)" style="fill: none; stroke: #b0b0b0; stroke-opacity: 0.25; stroke-width: 0.5; stroke-linecap: square"/>
     </g>
     <g id="line2d_4">
      <g>
       <use xlink:href="#mf4aefbf04d" x="93.799897" y="165.550312" style="stroke: #000000; stroke-width: 0.8"/>
      </g>
     </g>
     <g id="text_2">
      <!-- vector RAG -->
      <g transform="translate(45.821477 196.169394) rotate(-20) scale(0.09 -0.09)">
       <defs>
        <path id="DejaVuSans-59" d="M 191 3500 
L 800 3500 
L 1894 563 
L 2988 3500 
L 3597 3500 
L 2284 0 
L 1503 0 
L 191 3500 
z
" transform="scale(0.015625)"/>
        <path id="DejaVuSans-48" d="M 3597 1894 
L 3597 1613 
L 953 1613 
Q 991 1019 1311 708 
Q 1631 397 2203 397 
Q 2534 397 2845 478 
Q 3156 559 3463 722 
L 3463 178 
Q 3153 47 2828 -22 
Q 2503 -91 2169 -91 
Q 1331 -91 842 396 
Q 353 884 353 1716 
Q 353 2575 817 3079 
Q 1281 3584 2069 3584 
Q 2775 3584 3186 3129 
Q 3597 2675 3597 1894 
z
M 3022 2063 
Q 3016 2534 2758 2815 
Q 2500 3097 2075 3097 
Q 1594 3097 1305 2825 
Q 1016 2553 972 2059 
L 3022 2063 
z
" transform="scale(0.015625)"/>
        <path id="DejaVuSans-46" d="M 3122 3366 
L 3122 2828 
Q 2878 2963 2633 3030 
Q 2388 3097 2138 3097 
Q 1578 3097 1268 2742 
Q 959 2388 959 1747 
Q 959 1106 1268 751 
Q 1578 397 2138 397 
Q 2388 397 2633 464 
Q 2878 531 3122 666 
L 3122 134 
Q 2881 22 2623 -34 
Q 2366 -91 2075 -91 
Q 1284 -91 818 406 
Q 353 903 353 1747 
Q 353 2603 823 3093 
Q 1294 3584 2113 3584 
Q 2378 3584 2631 3529 
Q 2884 3475 3122 3366 
z
" transform="scale(0.015625)"/>
        <path id="DejaVuSans-57" d="M 1172 4494 
L 1172 3500 
L 2356 3500 
L 2356 3053 
L 1172 3053 
L 1172 1153 
Q 1172 725 1289 603 
Q 1406 481 1766 481 
L 2356 481 
L 2356 0 
L 1766 0 
Q 1100 0 847 248 
Q 594 497 594 1153 
L 594 3053 
L 172 3053 
L 172 3500 
L 594 3500 
L 594 4494 
L 1172 4494 
z
" transform="scale(0.015625)"/>
        <path id="DejaVuSans-52" d="M 1959 3097 
Q 1497 3097 1228 2736 
Q 959 2375 959 1747 
Q 959 1119 1226 758 
Q 1494 397 1959 397 
Q 2419 397 2687 759 
Q 2956 1122 2956 1747 
Q 2956 2369 2687 2733 
Q 2419 3097 1959 3097 
z
M 1959 3584 
Q 2709 3584 3137 3096 
Q 3566 2609 3566 1747 
Q 3566 888 3137 398 
Q 2709 -91 1959 -91 
Q 1206 -91 779 398 
Q 353 888 353 1747 
Q 353 2609 779 3096 
Q 1206 3584 1959 3584 
z
" transform="scale(0.015625)"/>
        <path id="DejaVuSans-55" d="M 2631 2963 
Q 2534 3019 2420 3045 
Q 2306 3072 2169 3072 
Q 1681 3072 1420 2755 
Q 1159 2438 1159 1844 
L 1159 0 
L 581 0 
L 581 3500 
L 1159 3500 
L 1159 2956 
Q 1341 3275 1631 3429 
Q 1922 3584 2338 3584 
Q 2397 3584 2469 3576 
Q 2541 3569 2628 3553 
L 2631 2963 
z
" transform="scale(0.015625)"/>
        <path id="DejaVuSans-35" d="M 2841 2188 
Q 3044 2119 3236 1894 
Q 3428 1669 3622 1275 
L 4263 0 
L 3584 0 
L 2988 1197 
Q 2756 1666 2539 1819 
Q 2322 1972 1947 1972 
L 1259 1972 
L 1259 0 
L 628 0 
L 628 4666 
L 2053 4666 
Q 2853 4666 3247 4331 
Q 3641 3997 3641 3322 
Q 3641 2881 3436 2590 
Q 3231 2300 2841 2188 
z
M 1259 4147 
L 1259 2491 
L 2053 2491 
Q 2509 2491 2742 2702 
Q 2975 2913 2975 3322 
Q 2975 3731 2742 3939 
Q 2509 4147 2053 4147 
L 1259 4147 
z
" transform="scale(0.015625)"/>
        <path id="DejaVuSans-24" d="M 2188 4044 
L 1331 1722 
L 3047 1722 
L 2188 4044 
z
M 1831 4666 
L 2547 4666 
L 4325 0 
L 3669 0 
L 3244 1197 
L 1141 1197 
L 716 0 
L 50 0 
L 1831 4666 
z
" transform="scale(0.015625)"/>
        <path id="DejaVuSans-2a" d="M 3809 666 
L 3809 1919 
L 2778 1919 
L 2778 2438 
L 4434 2438 
L 4434 434 
Q 4069 175 3628 42 
Q 3188 -91 2688 -91 
Q 1594 -91 976 548 
Q 359 1188 359 2328 
Q 359 3472 976 4111 
Q 1594 4750 2688 4750 
Q 3144 4750 3555 4637 
Q 3966 4525 4313 4306 
L 4313 3634 
Q 3963 3931 3569 4081 
Q 3175 4231 2741 4231 
Q 1884 4231 1454 3753 
Q 1025 3275 1025 2328 
Q 1025 1384 1454 906 
Q 1884 428 2741 428 
Q 3075 428 3337 486 
Q 3600 544 3809 666 
z
" transform="scale(0.015625)"/>
       </defs>
       <use xlink:href="#DejaVuSans-59"/>
       <use xlink:href="#DejaVuSans-48" transform="translate(59.1875 0)"/>
       <use xlink:href="#DejaVuSans-46" transform="translate(120.71875 0)"/>
       <use xlink:href="#DejaVuSans-57" transform="translate(175.703125 0)"/>
       <use xlink:href="#DejaVuSans-52" transform="translate(214.90625 0)"/>
       <use xlink:href="#DejaVuSans-55" transform="translate(276.09375 0)"/>
       <use xlink:href="#DejaVuSans-3" transform="translate(317.203125 0)"/>
       <use xlink:href="#DejaVuSans-35" transform="translate(348.984375 0)"/>
       <use xlink:href="#DejaVuSans-24" transform="translate(414.421875 0)"/>
       <use xlink:href="#DejaVuSans-2a" transform="translate(481.078125 0)"/>
      </g>
     </g>
    </g>
    <g id="xtick_3">
     <g id="line2d_5">
      <path d="M 127.42593 165.550312 
L 127.42593 21.406312 
" clip-path="url(#pe2f8473452)" style="fill: none; stroke: #b0b0b0; stroke-opacity: 0.25; stroke-width: 0.5; stroke-linecap: square"/>
     </g>
     <g id="line2d_6">
      <g>
       <use xlink:href="#mf4aefbf04d" x="127.42593" y="165.550312" style="stroke: #000000; stroke-width: 0.8"/>
      </g>
     </g>
     <g id="text_3">
      <!-- graph, no judge -->
      <g transform="translate(59.680048 203.364823) rotate(-20) scale(0.09 -0.09)">
       <defs>
        <path id="DejaVuSans-4a" d="M 2906 1791 
Q 2906 2416 2648 2759 
Q 2391 3103 1925 3103 
Q 1463 3103 1205 2759 
Q 947 2416 947 1791 
Q 947 1169 1205 825 
Q 1463 481 1925 481 
Q 2391 481 2648 825 
Q 2906 1169 2906 1791 
z
M 3481 434 
Q 3481 -459 3084 -895 
Q 2688 -1331 1869 -1331 
Q 1566 -1331 1297 -1286 
Q 1028 -1241 775 -1147 
L 775 -588 
Q 1028 -725 1275 -790 
Q 1522 -856 1778 -856 
Q 2344 -856 2625 -561 
Q 2906 -266 2906 331 
L 2906 616 
Q 2728 306 2450 153 
Q 2172 0 1784 0 
Q 1141 0 747 490 
Q 353 981 353 1791 
Q 353 2603 747 3093 
Q 1141 3584 1784 3584 
Q 2172 3584 2450 3431 
Q 2728 3278 2906 2969 
L 2906 3500 
L 3481 3500 
L 3481 434 
z
" transform="scale(0.015625)"/>
        <path id="DejaVuSans-4b" d="M 3513 2113 
L 3513 0 
L 2938 0 
L 2938 2094 
Q 2938 2591 2744 2837 
Q 2550 3084 2163 3084 
Q 1697 3084 1428 2787 
Q 1159 2491 1159 1978 
L 1159 0 
L 581 0 
L 581 4863 
L 1159 4863 
L 1159 2956 
Q 1366 3272 1645 3428 
Q 1925 3584 2291 3584 
Q 2894 3584 3203 3211 
Q 3513 2838 3513 2113 
z
" transform="scale(0.015625)"/>
        <path id="DejaVuSans-f" d="M 750 794 
L 1409 794 
L 1409 256 
L 897 -744 
L 494 -744 
L 750 256 
L 750 794 
z
" transform="scale(0.015625)"/>
        <path id="DejaVuSans-4d" d="M 603 3500 
L 1178 3500 
L 1178 -63 
Q 1178 -731 923 -1031 
Q 669 -1331 103 -1331 
L -116 -1331 
L -116 -844 
L 38 -844 
Q 366 -844 484 -692 
Q 603 -541 603 -63 
L 603 3500 
z
M 603 4863 
L 1178 4863 
L 1178 4134 
L 603 4134 
L 603 4863 
z
" transform="scale(0.015625)"/>
        <path id="DejaVuSans-58" d="M 544 1381 
L 544 3500 
L 1119 3500 
L 1119 1403 
Q 1119 906 1312 657 
Q 1506 409 1894 409 
Q 2359 409 2629 706 
Q 2900 1003 2900 1516 
L 2900 3500 
L 3475 3500 
L 3475 0 
L 2900 0 
L 2900 538 
Q 2691 219 2414 64 
Q 2138 -91 1772 -91 
Q 1169 -91 856 284 
Q 544 659 544 1381 
z
M 1991 3584 
L 1991 3584 
z
" transform="scale(0.015625)"/>
        <path id="DejaVuSans-47" d="M 2906 2969 
L 2906 4863 
L 3481 4863 
L 3481 0 
L 2906 0 
L 2906 525 
Q 2725 213 2448 61 
Q 2172 -91 1784 -91 
Q 1150 -91 751 415 
Q 353 922 353 1747 
Q 353 2572 751 3078 
Q 1150 3584 1784 3584 
Q 2172 3584 2448 3432 
Q 2725 3281 2906 2969 
z
M 947 1747 
Q 947 1113 1208 752 
Q 1469 391 1925 391 
Q 2381 391 2643 752 
Q 2906 1113 2906 1747 
Q 2906 2381 2643 2742 
Q 2381 3103 1925 3103 
Q 1469 3103 1208 2742 
Q 947 2381 947 1747 
z
" transform="scale(0.015625)"/>
       </defs>
       <use xlink:href="#DejaVuSans-4a"/>
       <use xlink:href="#DejaVuSans-55" transform="translate(63.484375 0)"/>
       <use xlink:href="#DejaVuSans-44" transform="translate(104.59375 0)"/>
       <use xlink:href="#DejaVuSans-53" transform="translate(165.875 0)"/>
       <use xlink:href="#DejaVuSans-4b" transform="translate(229.359375 0)"/>
       <use xlink:href="#DejaVuSans-f" transform="translate(292.734375 0)"/>
       <use xlink:href="#DejaVuSans-3" transform="translate(324.515625 0)"/>
       <use xlink:href="#DejaVuSans-51" transform="translate(356.296875 0)"/>
       <use xlink:href="#DejaVuSans-52" transform="translate(419.671875 0)"/>
       <use xlink:href="#DejaVuSans-3" transform="translate(480.859375 0)"/>
       <use xlink:href="#DejaVuSans-4d" transform="translate(512.640625 0)"/>
       <use xlink:href="#DejaVuSans-58" transform="translate(540.421875 0)"/>
       <use xlink:href="#DejaVuSans-47" transform="translate(603.796875 0)"/>
       <use xlink:href="#DejaVuSans-4a" transform="translate(667.28125 0)"/>
       <use xlink:href="#DejaVuSans-48" transform="translate(730.765625 0)"/>
      </g>
     </g>
    </g>
    <g id="xtick_4">
     <g id="line2d_7">
      <path d="M 161.051963 165.550312 
L 161.051963 21.406312 
" clip-path="url(#pe2f8473452)" style="fill: none; stroke: #b0b0b0; stroke-opacity: 0.25; stroke-width: 0.5; stroke-linecap: square"/>
     </g>
     <g id="line2d_8">
      <g>
       <use xlink:href="#mf4aefbf04d" x="161.051963" y="165.550312" style="stroke: #000000; stroke-width: 0.8"/>
      </g>
     </g>
     <g id="text_4">
      <!-- graph + build judge -->
      <g transform="translate(75.956859 209.679423) rotate(-20) scale(0.09 -0.09)">
       <defs>
        <path id="DejaVuSans-e" d="M 2944 4013 
L 2944 2272 
L 4684 2272 
L 4684 1741 
L 2944 1741 
L 2944 0 
L 2419 0 
L 2419 1741 
L 678 1741 
L 678 2272 
L 2419 2272 
L 2419 4013 
L 2944 4013 
z
" transform="scale(0.015625)"/>
        <path id="DejaVuSans-45" d="M 3116 1747 
Q 3116 2381 2855 2742 
Q 2594 3103 2138 3103 
Q 1681 3103 1420 2742 
Q 1159 2381 1159 1747 
Q 1159 1113 1420 752 
Q 1681 391 2138 391 
Q 2594 391 2855 752 
Q 3116 1113 3116 1747 
z
M 1159 2969 
Q 1341 3281 1617 3432 
Q 1894 3584 2278 3584 
Q 2916 3584 3314 3078 
Q 3713 2572 3713 1747 
Q 3713 922 3314 415 
Q 2916 -91 2278 -91 
Q 1894 -91 1617 61 
Q 1341 213 1159 525 
L 1159 0 
L 581 0 
L 581 4863 
L 1159 4863 
L 1159 2969 
z
" transform="scale(0.015625)"/>
       </defs>
       <use xlink:href="#DejaVuSans-4a"/>
       <use xlink:href="#DejaVuSans-55" transform="translate(63.484375 0)"/>
       <use xlink:href="#DejaVuSans-44" transform="translate(104.59375 0)"/>
       <use xlink:href="#DejaVuSans-53" transform="translate(165.875 0)"/>
       <use xlink:href="#DejaVuSans-4b" transform="translate(229.359375 0)"/>
       <use xlink:href="#DejaVuSans-3" transform="translate(292.734375 0)"/>
       <use xlink:href="#DejaVuSans-e" transform="translate(324.515625 0)"/>
       <use xlink:href="#DejaVuSans-3" transform="translate(408.3125 0)"/>
       <use xlink:href="#DejaVuSans-45" transform="translate(440.09375 0)"/>
       <use xlink:href="#DejaVuSans-58" transform="translate(503.578125 0)"/>
       <use xlink:href="#DejaVuSans-4c" transform="translate(566.953125 0)"/>
       <use xlink:href="#DejaVuSans-4f" transform="translate(594.734375 0)"/>
       <use xlink:href="#DejaVuSans-47" transform="translate(622.515625 0)"/>
       <use xlink:href="#DejaVuSans-3" transform="translate(686 0)"/>
       <use xlink:href="#DejaVuSans-4d" transform="translate(717.78125 0)"/>
       <use xlink:href="#DejaVuSans-58" transform="translate(745.5625 0)"/>
       <use xlink:href="#DejaVuSans-47" transform="translate(808.9375 0)"/>
       <use xlink:href="#DejaVuSans-4a" transform="translate(872.421875 0)"/>
       <use xlink:href="#DejaVuSans-48" transform="translate(935.90625 0)"/>
      </g>
     </g>
    </g>
    <g id="xtick_5">
     <g id="line2d_9">
      <path d="M 194.677997 165.550312 
L 194.677997 21.406312 
" clip-path="url(#pe2f8473452)" style="fill: none; stroke: #b0b0b0; stroke-opacity: 0.25; stroke-width: 0.5; stroke-linecap: square"/>
     </g>
     <g id="line2d_10">
      <g>
       <use xlink:href="#mf4aefbf04d" x="194.677997" y="165.550312" style="stroke: #000000; stroke-width: 0.8"/>
      </g>
     </g>
     <g id="text_5">
      <!-- graph + both judges -->
      <g transform="translate(106.755005 210.70869) rotate(-20) scale(0.09 -0.09)">
       <defs>
        <path id="DejaVuSans-56" d="M 2834 3397 
L 2834 2853 
Q 2591 2978 2328 3040 
Q 2066 3103 1784 3103 
Q 1356 3103 1142 2972 
Q 928 2841 928 2578 
Q 928 2378 1081 2264 
Q 1234 2150 1697 2047 
L 1894 2003 
Q 2506 1872 2764 1633 
Q 3022 1394 3022 966 
Q 3022 478 2636 193 
Q 2250 -91 1575 -91 
Q 1294 -91 989 -36 
Q 684 19 347 128 
L 347 722 
Q 666 556 975 473 
Q 1284 391 1588 391 
Q 1994 391 2212 530 
Q 2431 669 2431 922 
Q 2431 1156 2273 1281 
Q 2116 1406 1581 1522 
L 1381 1569 
Q 847 1681 609 1914 
Q 372 2147 372 2553 
Q 372 3047 722 3315 
Q 1072 3584 1716 3584 
Q 2034 3584 2315 3537 
Q 2597 3491 2834 3397 
z
" transform="scale(0.015625)"/>
       </defs>
       <use xlink:href="#DejaVuSans-4a"/>
       <use xlink:href="#DejaVuSans-55" transform="translate(63.484375 0)"/>
       <use xlink:href="#DejaVuSans-44" transform="translate(104.59375 0)"/>
       <use xlink:href="#DejaVuSans-53" transform="translate(165.875 0)"/>
       <use xlink:href="#DejaVuSans-4b" transform="translate(229.359375 0)"/>
       <use xlink:href="#DejaVuSans-3" transform="translate(292.734375 0)"/>
       <use xlink:href="#DejaVuSans-e" transform="translate(324.515625 0)"/>
       <use xlink:href="#DejaVuSans-3" transform="translate(408.3125 0)"/>
       <use xlink:href="#DejaVuSans-45" transform="translate(440.09375 0)"/>
       <use xlink:href="#DejaVuSans-52" transform="translate(503.578125 0)"/>
       <use xlink:href="#DejaVuSans-57" transform="translate(564.765625 0)"/>
       <use xlink:href="#DejaVuSans-4b" transform="translate(603.96875 0)"/>
       <use xlink:href="#DejaVuSans-3" transform="translate(667.34375 0)"/>
       <use xlink:href="#DejaVuSans-4d" transform="translate(699.125 0)"/>
       <use xlink:href="#DejaVuSans-58" transform="translate(726.90625 0)"/>
       <use xlink:href="#DejaVuSans-47" transform="translate(790.28125 0)"/>
       <use xlink:href="#DejaVuSans-4a" transform="translate(853.765625 0)"/>
       <use xlink:href="#DejaVuSans-48" transform="translate(917.25 0)"/>
       <use xlink:href="#DejaVuSans-56" transform="translate(978.78125 0)"/>
      </g>
     </g>
    </g>
   </g>
   <g id="matplotlib.axis_2">
    <g id="ytick_1">
     <g id="line2d_11">
      <path d="M 38.653203 165.550312 
L 216.198658 165.550312 
" clip-path="url(#pe2f8473452)" style="fill: none; stroke: #b0b0b0; stroke-opacity: 0.25; stroke-width: 0.5; stroke-linecap: square"/>
     </g>
     <g id="line2d_12">
      <defs>
       <path id="md4f9a960fe" d="M 0 0 
L -3.5 0 
" style="stroke: #000000; stroke-width: 0.8"/>
      </defs>
      <g>
       <use xlink:href="#md4f9a960fe" x="38.653203" y="165.550312" style="stroke: #000000; stroke-width: 0.8"/>
      </g>
     </g>
     <g id="text_6">
      <!-- 0 -->
      <g transform="translate(25.926953 168.969258) scale(0.09 -0.09)">
       <defs>
        <path id="DejaVuSans-13" d="M 2034 4250 
Q 1547 4250 1301 3770 
Q 1056 3291 1056 2328 
Q 1056 1369 1301 889 
Q 1547 409 2034 409 
Q 2525 409 2770 889 
Q 3016 1369 3016 2328 
Q 3016 3291 2770 3770 
Q 2525 4250 2034 4250 
z
M 2034 4750 
Q 2819 4750 3233 4129 
Q 3647 3509 3647 2328 
Q 3647 1150 3233 529 
Q 2819 -91 2034 -91 
Q 1250 -91 836 529 
Q 422 1150 422 2328 
Q 422 3509 836 4129 
Q 1250 4750 2034 4750 
z
" transform="scale(0.015625)"/>
       </defs>
       <use xlink:href="#DejaVuSans-13"/>
      </g>
     </g>
    </g>
    <g id="ytick_2">
     <g id="line2d_13">
      <path d="M 38.653203 141.036027 
L 216.198658 141.036027 
" clip-path="url(#pe2f8473452)" style="fill: none; stroke: #b0b0b0; stroke-opacity: 0.25; stroke-width: 0.5; stroke-linecap: square"/>
     </g>
     <g id="line2d_14">
      <g>
       <use xlink:href="#md4f9a960fe" x="38.653203" y="141.036027" style="stroke: #000000; stroke-width: 0.8"/>
      </g>
     </g>
     <g id="text_7">
      <!-- 5 -->
      <g transform="translate(25.926953 144.454972) scale(0.09 -0.09)">
       <defs>
        <path id="DejaVuSans-18" d="M 691 4666 
L 3169 4666 
L 3169 4134 
L 1269 4134 
L 1269 2991 
Q 1406 3038 1543 3061 
Q 1681 3084 1819 3084 
Q 2600 3084 3056 2656 
Q 3513 2228 3513 1497 
Q 3513 744 3044 326 
Q 2575 -91 1722 -91 
Q 1428 -91 1123 -41 
Q 819 9 494 109 
L 494 744 
Q 775 591 1075 516 
Q 1375 441 1709 441 
Q 2250 441 2565 725 
Q 2881 1009 2881 1497 
Q 2881 1984 2565 2268 
Q 2250 2553 1709 2553 
Q 1456 2553 1204 2497 
Q 953 2441 691 2322 
L 691 4666 
z
" transform="scale(0.015625)"/>
       </defs>
       <use xlink:href="#DejaVuSans-18"/>
      </g>
     </g>
    </g>
    <g id="ytick_3">
     <g id="line2d_15">
      <path d="M 38.653203 116.521741 
L 216.198658 116.521741 
" clip-path="url(#pe2f8473452)" style="fill: none; stroke: #b0b0b0; stroke-opacity: 0.25; stroke-width: 0.5; stroke-linecap: square"/>
     </g>
     <g id="line2d_16">
      <g>
       <use xlink:href="#md4f9a960fe" x="38.653203" y="116.521741" style="stroke: #000000; stroke-width: 0.8"/>
      </g>
     </g>
     <g id="text_8">
      <!-- 10 -->
      <g transform="translate(20.200703 119.940686) scale(0.09 -0.09)">
       <defs>
        <path id="DejaVuSans-14" d="M 794 531 
L 1825 531 
L 1825 4091 
L 703 3866 
L 703 4441 
L 1819 4666 
L 2450 4666 
L 2450 531 
L 3481 531 
L 3481 0 
L 794 0 
L 794 531 
z
" transform="scale(0.015625)"/>
       </defs>
       <use xlink:href="#DejaVuSans-14"/>
       <use xlink:href="#DejaVuSans-13" transform="translate(63.625 0)"/>
      </g>
     </g>
    </g>
    <g id="ytick_4">
     <g id="line2d_17">
      <path d="M 38.653203 92.007455 
L 216.198658 92.007455 
" clip-path="url(#pe2f8473452)" style="fill: none; stroke: #b0b0b0; stroke-opacity: 0.25; stroke-width: 0.5; stroke-linecap: square"/>
     </g>
     <g id="line2d_18">
      <g>
       <use xlink:href="#md4f9a960fe" x="38.653203" y="92.007455" style="stroke: #000000; stroke-width: 0.8"/>
      </g>
     </g>
     <g id="text_9">
      <!-- 15 -->
      <g transform="translate(20.200703 95.426401) scale(0.09 -0.09)">
       <use xlink:href="#DejaVuSans-14"/>
       <use xlink:href="#DejaVuSans-18" transform="translate(63.625 0)"/>
      </g>
     </g>
    </g>
    <g id="ytick_5">
     <g id="line2d_19">
      <path d="M 38.653203 67.49317 
L 216.198658 67.49317 
" clip-path="url(#pe2f8473452)" style="fill: none; stroke: #b0b0b0; stroke-opacity: 0.25; stroke-width: 0.5; stroke-linecap: square"/>
     </g>
     <g id="line2d_20">
      <g>
       <use xlink:href="#md4f9a960fe" x="38.653203" y="67.49317" style="stroke: #000000; stroke-width: 0.8"/>
      </g>
     </g>
     <g id="text_10">
      <!-- 20 -->
      <g transform="translate(20.200703 70.912115) scale(0.09 -0.09)">
       <defs>
        <path id="DejaVuSans-15" d="M 1228 531 
L 3431 531 
L 3431 0 
L 469 0 
L 469 531 
Q 828 903 1448 1529 
Q 2069 2156 2228 2338 
Q 2531 2678 2651 2914 
Q 2772 3150 2772 3378 
Q 2772 3750 2511 3984 
Q 2250 4219 1831 4219 
Q 1534 4219 1204 4116 
Q 875 4013 500 3803 
L 500 4441 
Q 881 4594 1212 4672 
Q 1544 4750 1819 4750 
Q 2544 4750 2975 4387 
Q 3406 4025 3406 3419 
Q 3406 3131 3298 2873 
Q 3191 2616 2906 2266 
Q 2828 2175 2409 1742 
Q 1991 1309 1228 531 
z
" transform="scale(0.015625)"/>
       </defs>
       <use xlink:href="#DejaVuSans-15"/>
       <use xlink:href="#DejaVuSans-13" transform="translate(63.625 0)"/>
      </g>
     </g>
    </g>
    <g id="ytick_6">
     <g id="line2d_21">
      <path d="M 38.653203 42.978884 
L 216.198658 42.978884 
" clip-path="url(#pe2f8473452)" style="fill: none; stroke: #b0b0b0; stroke-opacity: 0.25; stroke-width: 0.5; stroke-linecap: square"/>
     </g>
     <g id="line2d_22">
      <g>
       <use xlink:href="#md4f9a960fe" x="38.653203" y="42.978884" style="stroke: #000000; stroke-width: 0.8"/>
      </g>
     </g>
     <g id="text_11">
      <!-- 25 -->
      <g transform="translate(20.200703 46.397829) scale(0.09 -0.09)">
       <use xlink:href="#DejaVuSans-15"/>
       <use xlink:href="#DejaVuSans-18" transform="translate(63.625 0)"/>
      </g>
     </g>
    </g>
    <g id="text_12">
     <!-- benchmark free-text items (of 32) -->
     <g transform="translate(14.038594 170.063391) rotate(-90) scale(0.09 -0.09)">
      <defs>
       <path id="DejaVuSans-50" d="M 3328 2828 
Q 3544 3216 3844 3400 
Q 4144 3584 4550 3584 
Q 5097 3584 5394 3201 
Q 5691 2819 5691 2113 
L 5691 0 
L 5113 0 
L 5113 2094 
Q 5113 2597 4934 2840 
Q 4756 3084 4391 3084 
Q 3944 3084 3684 2787 
Q 3425 2491 3425 1978 
L 3425 0 
L 2847 0 
L 2847 2094 
Q 2847 2600 2669 2842 
Q 2491 3084 2119 3084 
Q 1678 3084 1418 2786 
Q 1159 2488 1159 1978 
L 1159 0 
L 581 0 
L 581 3500 
L 1159 3500 
L 1159 2956 
Q 1356 3278 1631 3431 
Q 1906 3584 2284 3584 
Q 2666 3584 2933 3390 
Q 3200 3197 3328 2828 
z
" transform="scale(0.015625)"/>
       <path id="DejaVuSans-4e" d="M 581 4863 
L 1159 4863 
L 1159 1991 
L 2875 3500 
L 3609 3500 
L 1753 1863 
L 3688 0 
L 2938 0 
L 1159 1709 
L 1159 0 
L 581 0 
L 581 4863 
z
" transform="scale(0.015625)"/>
       <path id="DejaVuSans-49" d="M 2375 4863 
L 2375 4384 
L 1825 4384 
Q 1516 4384 1395 4259 
Q 1275 4134 1275 3809 
L 1275 3500 
L 2222 3500 
L 2222 3053 
L 1275 3053 
L 1275 0 
L 697 0 
L 697 3053 
L 147 3053 
L 147 3500 
L 697 3500 
L 697 3744 
Q 697 4328 969 4595 
Q 1241 4863 1831 4863 
L 2375 4863 
z
" transform="scale(0.015625)"/>
       <path id="DejaVuSans-10" d="M 313 2009 
L 1997 2009 
L 1997 1497 
L 313 1497 
L 313 2009 
z
" transform="scale(0.015625)"/>
       <path id="DejaVuSans-5b" d="M 3513 3500 
L 2247 1797 
L 3578 0 
L 2900 0 
L 1881 1375 
L 863 0 
L 184 0 
L 1544 1831 
L 300 3500 
L 978 3500 
L 1906 2253 
L 2834 3500 
L 3513 3500 
z
" transform="scale(0.015625)"/>
       <path id="DejaVuSans-b" d="M 1984 4856 
Q 1566 4138 1362 3434 
Q 1159 2731 1159 2009 
Q 1159 1288 1364 580 
Q 1569 -128 1984 -844 
L 1484 -844 
Q 1016 -109 783 600 
Q 550 1309 550 2009 
Q 550 2706 781 3412 
Q 1013 4119 1484 4856 
L 1984 4856 
z
" transform="scale(0.015625)"/>
       <path id="DejaVuSans-16" d="M 2597 2516 
Q 3050 2419 3304 2112 
Q 3559 1806 3559 1356 
Q 3559 666 3084 287 
Q 2609 -91 1734 -91 
Q 1441 -91 1130 -33 
Q 819 25 488 141 
L 488 750 
Q 750 597 1062 519 
Q 1375 441 1716 441 
Q 2309 441 2620 675 
Q 2931 909 2931 1356 
Q 2931 1769 2642 2001 
Q 2353 2234 1838 2234 
L 1294 2234 
L 1294 2753 
L 1863 2753 
Q 2328 2753 2575 2939 
Q 2822 3125 2822 3475 
Q 2822 3834 2567 4026 
Q 2313 4219 1838 4219 
Q 1578 4219 1281 4162 
Q 984 4106 628 3988 
L 628 4550 
Q 988 4650 1302 4700 
Q 1616 4750 1894 4750 
Q 2613 4750 3031 4423 
Q 3450 4097 3450 3541 
Q 3450 3153 3228 2886 
Q 3006 2619 2597 2516 
z
" transform="scale(0.015625)"/>
       <path id="DejaVuSans-c" d="M 513 4856 
L 1013 4856 
Q 1481 4119 1714 3412 
Q 1947 2706 1947 2009 
Q 1947 1309 1714 600 
Q 1481 -109 1013 -844 
L 513 -844 
Q 928 -128 1133 580 
Q 1338 1288 1338 2009 
Q 1338 2731 1133 3434 
Q 928 4138 513 4856 
z
" transform="scale(0.015625)"/>
      </defs>
      <use xlink:href="#DejaVuSans-45"/>
      <use xlink:href="#DejaVuSans-48" transform="translate(63.484375 0)"/>
      <use xlink:href="#DejaVuSans-51" transform="translate(125.015625 0)"/>
      <use xlink:href="#DejaVuSans-46" transform="translate(188.390625 0)"/>
      <use xlink:href="#DejaVuSans-4b" transform="translate(243.375 0)"/>
      <use xlink:href="#DejaVuSans-50" transform="translate(306.75 0)"/>
      <use xlink:href="#DejaVuSans-44" transform="translate(404.15625 0)"/>
      <use xlink:href="#DejaVuSans-55" transform="translate(465.4375 0)"/>
      <use xlink:href="#DejaVuSans-4e" transform="translate(506.546875 0)"/>
      <use xlink:href="#DejaVuSans-3" transform="translate(564.453125 0)"/>
      <use xlink:href="#DejaVuSans-49" transform="translate(596.234375 0)"/>
      <use xlink:href="#DejaVuSans-55" transform="translate(631.4375 0)"/>
      <use xlink:href="#DejaVuSans-48" transform="translate(670.34375 0)"/>
      <use xlink:href="#DejaVuSans-48" transform="translate(731.875 0)"/>
      <use xlink:href="#DejaVuSans-10" transform="translate(793.40625 0)"/>
      <use xlink:href="#DejaVuSans-57" transform="translate(829.484375 0)"/>
      <use xlink:href="#DejaVuSans-48" transform="translate(868.6875 0)"/>
      <use xlink:href="#DejaVuSans-5b" transform="translate(928.46875 0)"/>
      <use xlink:href="#DejaVuSans-57" transform="translate(987.65625 0)"/>
      <use xlink:href="#DejaVuSans-3" transform="translate(1026.859375 0)"/>
      <use xlink:href="#DejaVuSans-4c" transform="translate(1058.640625 0)"/>
      <use xlink:href="#DejaVuSans-57" transform="translate(1086.421875 0)"/>
      <use xlink:href="#DejaVuSans-48" transform="translate(1125.625 0)"/>
      <use xlink:href="#DejaVuSans-50" transform="translate(1187.15625 0)"/>
      <use xlink:href="#DejaVuSans-56" transform="translate(1284.5625 0)"/>
      <use xlink:href="#DejaVuSans-3" transform="translate(1336.65625 0)"/>
      <use xlink:href="#DejaVuSans-b" transform="translate(1368.4375 0)"/>
      <use xlink:href="#DejaVuSans-52" transform="translate(1407.453125 0)"/>
      <use xlink:href="#DejaVuSans-49" transform="translate(1468.640625 0)"/>
      <use xlink:href="#DejaVuSans-3" transform="translate(1503.84375 0)"/>
      <use xlink:href="#DejaVuSans-16" transform="translate(1535.625 0)"/>
      <use xlink:href="#DejaVuSans-15" transform="translate(1599.25 0)"/>
      <use xlink:href="#DejaVuSans-c" transform="translate(1662.875 0)"/>
     </g>
    </g>
   </g>
   <g id="patch_13">
    <path d="M 38.653203 165.550312 
L 38.653203 21.406312 
" style="fill: none; stroke: #000000; stroke-width: 0.8; stroke-linejoin: miter; stroke-linecap: square"/>
   </g>
   <g id="patch_14">
    <path d="M 38.653203 165.550312 
L 216.198658 165.550312 
" style="fill: none; stroke: #000000; stroke-width: 0.8; stroke-linejoin: miter; stroke-linecap: square"/>
   </g>
   <g id="text_13">
    <!-- Classification outcome (run 2) -->
    <g transform="translate(46.134837 15.406312) scale(0.108 -0.108)">
     <defs>
      <path id="DejaVuSans-26" d="M 4122 4306 
L 4122 3641 
Q 3803 3938 3442 4084 
Q 3081 4231 2675 4231 
Q 1875 4231 1450 3742 
Q 1025 3253 1025 2328 
Q 1025 1406 1450 917 
Q 1875 428 2675 428 
Q 3081 428 3442 575 
Q 3803 722 4122 1019 
L 4122 359 
Q 3791 134 3420 21 
Q 3050 -91 2638 -91 
Q 1578 -91 968 557 
Q 359 1206 359 2328 
Q 359 3453 968 4101 
Q 1578 4750 2638 4750 
Q 3056 4750 3426 4639 
Q 3797 4528 4122 4306 
z
" transform="scale(0.015625)"/>
      <path id="DejaVuSans-13af" d="M 3431 3500 
L 3431 0 
L 2853 0 
L 2853 3053 
L 1275 3053 
L 1275 0 
L 697 0 
L 697 3053 
L 147 3053 
L 147 3500 
L 697 3500 
L 697 3744 
Q 697 4316 967 4589 
Q 1238 4863 1797 4863 
L 2375 4863 
L 2375 4384 
L 1825 4384 
Q 1516 4384 1395 4259 
Q 1275 4134 1275 3809 
L 1275 3500 
L 3431 3500 
z
M 2853 4856 
L 3431 4856 
L 3431 4128 
L 2853 4128 
L 2853 4856 
z
" transform="scale(0.015625)"/>
     </defs>
     <use xlink:href="#DejaVuSans-26"/>
     <use xlink:href="#DejaVuSans-4f" transform="translate(69.828125 0)"/>
     <use xlink:href="#DejaVuSans-44" transform="translate(97.609375 0)"/>
     <use xlink:href="#DejaVuSans-56" transform="translate(158.890625 0)"/>
     <use xlink:href="#DejaVuSans-56" transform="translate(210.984375 0)"/>
     <use xlink:href="#DejaVuSans-4c" transform="translate(263.078125 0)"/>
     <use xlink:href="#DejaVuSans-13af" transform="translate(290.859375 0)"/>
     <use xlink:href="#DejaVuSans-46" transform="translate(353.84375 0)"/>
     <use xlink:href="#DejaVuSans-44" transform="translate(408.828125 0)"/>
     <use xlink:href="#DejaVuSans-57" transform="translate(470.109375 0)"/>
     <use xlink:href="#DejaVuSans-4c" transform="translate(509.3125 0)"/>
     <use xlink:href="#DejaVuSans-52" transform="translate(537.09375 0)"/>
     <use xlink:href="#DejaVuSans-51" transform="translate(598.28125 0)"/>
     <use xlink:href="#DejaVuSans-3" transform="translate(661.65625 0)"/>
     <use xlink:href="#DejaVuSans-52" transform="translate(693.4375 0)"/>
     <use xlink:href="#DejaVuSans-58" transform="translate(754.625 0)"/>
     <use xlink:href="#DejaVuSans-57" transform="translate(818 0)"/>
     <use xlink:href="#DejaVuSans-46" transform="translate(857.203125 0)"/>
     <use xlink:href="#DejaVuSans-52" transform="translate(912.1875 0)"/>
     <use xlink:href="#DejaVuSans-50" transform="translate(973.375 0)"/>
     <use xlink:href="#DejaVuSans-48" transform="translate(1070.78125 0)"/>
     <use xlink:href="#DejaVuSans-3" transform="translate(1132.3125 0)"/>
     <use xlink:href="#DejaVuSans-b" transform="translate(1164.09375 0)"/>
     <use xlink:href="#DejaVuSans-55" transform="translate(1203.109375 0)"/>
     <use xlink:href="#DejaVuSans-58" transform="translate(1244.21875 0)"/>
     <use xlink:href="#DejaVuSans-51" transform="translate(1307.59375 0)"/>
     <use xlink:href="#DejaVuSans-3" transform="translate(1370.96875 0)"/>
     <use xlink:href="#DejaVuSans-15" transform="translate(1402.75 0)"/>
     <use xlink:href="#DejaVuSans-c" transform="translate(1466.375 0)"/>
    </g>
   </g>
   <g id="legend_1">
    <g id="patch_15">
     <path d="M 124.212095 33.025219 
L 138.212095 33.025219 
L 138.212095 28.125219 
L 124.212095 28.125219 
z
" style="fill: #0072b2"/>
    </g>
    <g id="text_14">
     <!-- correct -->
     <g transform="translate(143.812095 33.025219) scale(0.07 -0.07)">
      <use xlink:href="#DejaVuSans-46"/>
      <use xlink:href="#DejaVuSans-52" transform="translate(54.984375 0)"/>
      <use xlink:href="#DejaVuSans-55" transform="translate(116.171875 0)"/>
      <use xlink:href="#DejaVuSans-55" transform="translate(155.53125 0)"/>
      <use xlink:href="#DejaVuSans-48" transform="translate(194.4375 0)"/>
      <use xlink:href="#DejaVuSans-46" transform="translate(255.96875 0)"/>
      <use xlink:href="#DejaVuSans-57" transform="translate(310.953125 0)"/>
     </g>
    </g>
    <g id="patch_16">
     <path d="M 124.212095 43.525766 
L 138.212095 43.525766 
L 138.212095 38.625766 
L 124.212095 38.625766 
z
" style="fill: #e69f00"/>
    </g>
    <g id="text_15">
     <!-- abstained (honest) -->
     <g transform="translate(143.812095 43.525766) scale(0.07 -0.07)">
      <use xlink:href="#DejaVuSans-44"/>
      <use xlink:href="#DejaVuSans-45" transform="translate(61.28125 0)"/>
      <use xlink:href="#DejaVuSans-56" transform="translate(124.765625 0)"/>
      <use xlink:href="#DejaVuSans-57" transform="translate(176.859375 0)"/>
      <use xlink:href="#DejaVuSans-44" transform="translate(216.0625 0)"/>
      <use xlink:href="#DejaVuSans-4c" transform="translate(277.34375 0)"/>
      <use xlink:href="#DejaVuSans-51" transform="translate(305.125 0)"/>
      <use xlink:href="#DejaVuSans-48" transform="translate(368.5 0)"/>
      <use xlink:href="#DejaVuSans-47" transform="translate(430.03125 0)"/>
      <use xlink:href="#DejaVuSans-3" transform="translate(493.515625 0)"/>
      <use xlink:href="#DejaVuSans-b" transform="translate(525.296875 0)"/>
      <use xlink:href="#DejaVuSans-4b" transform="translate(564.3125 0)"/>
      <use xlink:href="#DejaVuSans-52" transform="translate(627.6875 0)"/>
      <use xlink:href="#DejaVuSans-51" transform="translate(688.875 0)"/>
      <use xlink:href="#DejaVuSans-48" transform="translate(752.25 0)"/>
      <use xlink:href="#DejaVuSans-56" transform="translate(813.78125 0)"/>
      <use xlink:href="#DejaVuSans-57" transform="translate(865.875 0)"/>
      <use xlink:href="#DejaVuSans-c" transform="translate(905.078125 0)"/>
     </g>
    </g>
   </g>
  </g>
  <g id="axes_2">
   <g id="patch_17">
    <path d="M 251.707749 165.550312 
L 429.253203 165.550312 
L 429.253203 21.406312 
L 251.707749 21.406312 
z
" style="fill: #ffffff"/>
   </g>
   <g id="patch_18">
    <path d="M 259.777997 165.550312 
L 286.678823 165.550312 
L 286.678823 165.550312 
L 259.777997 165.550312 
z
" clip-path="url(#p737d420112)" style="fill: #009e73"/>
   </g>
   <g id="patch_19">
    <path d="M 293.40403 165.550312 
L 320.304856 165.550312 
L 320.304856 157.123432 
L 293.40403 157.123432 
z
" clip-path="url(#p737d420112)" style="fill: #009e73"/>
   </g>
   <g id="patch_20">
    <path d="M 327.030063 165.550312 
L 353.930889 165.550312 
L 353.930889 110.997352 
L 327.030063 110.997352 
z
" clip-path="url(#p737d420112)" style="fill: #009e73"/>
   </g>
   <g id="patch_21">
    <path d="M 360.656096 165.550312 
L 387.556922 165.550312 
L 387.556922 111.440872 
L 360.656096 111.440872 
z
" clip-path="url(#p737d420112)" style="fill: #009e73"/>
   </g>
   <g id="patch_22">
    <path d="M 394.282129 165.550312 
L 421.182955 165.550312 
L 421.182955 111.440872 
L 394.282129 111.440872 
z
" clip-path="url(#p737d420112)" style="fill: #009e73"/>
   </g>
   <g id="matplotlib.axis_3">
    <g id="xtick_6">
     <g id="line2d_23">
      <path d="M 273.22841 165.550312 
L 273.22841 21.406312 
" clip-path="url(#p737d420112)" style="fill: none; stroke: #b0b0b0; stroke-opacity: 0.25; stroke-width: 0.5; stroke-linecap: square"/>
     </g>
     <g id="line2d_24">
      <g>
       <use xlink:href="#mf4aefbf04d" x="273.22841" y="165.550312" style="stroke: #000000; stroke-width: 0.8"/>
      </g>
     </g>
     <g id="text_16">
      <!-- plain LLM -->
      <g transform="translate(232.469031 193.542539) rotate(-20) scale(0.09 -0.09)">
       <use xlink:href="#DejaVuSans-53"/>
       <use xlink:href="#DejaVuSans-4f" transform="translate(63.484375 0)"/>
       <use xlink:href="#DejaVuSans-44" transform="translate(91.265625 0)"/>
       <use xlink:href="#DejaVuSans-4c" transform="translate(152.546875 0)"/>
       <use xlink:href="#DejaVuSans-51" transform="translate(180.328125 0)"/>
       <use xlink:href="#DejaVuSans-3" transform="translate(243.703125 0)"/>
       <use xlink:href="#DejaVuSans-2f" transform="translate(275.484375 0)"/>
       <use xlink:href="#DejaVuSans-2f" transform="translate(331.203125 0)"/>
       <use xlink:href="#DejaVuSans-30" transform="translate(386.921875 0)"/>
      </g>
     </g>
    </g>
    <g id="xtick_7">
     <g id="line2d_25">
      <path d="M 306.854443 165.550312 
L 306.854443 21.406312 
" clip-path="url(#p737d420112)" style="fill: none; stroke: #b0b0b0; stroke-opacity: 0.25; stroke-width: 0.5; stroke-linecap: square"/>
     </g>
     <g id="line2d_26">
      <g>
       <use xlink:href="#mf4aefbf04d" x="306.854443" y="165.550312" style="stroke: #000000; stroke-width: 0.8"/>
      </g>
     </g>
     <g id="text_17">
      <!-- vector RAG -->
      <g transform="translate(258.876022 196.169394) rotate(-20) scale(0.09 -0.09)">
       <use xlink:href="#DejaVuSans-59"/>
       <use xlink:href="#DejaVuSans-48" transform="translate(59.1875 0)"/>
       <use xlink:href="#DejaVuSans-46" transform="translate(120.71875 0)"/>
       <use xlink:href="#DejaVuSans-57" transform="translate(175.703125 0)"/>
       <use xlink:href="#DejaVuSans-52" transform="translate(214.90625 0)"/>
       <use xlink:href="#DejaVuSans-55" transform="translate(276.09375 0)"/>
       <use xlink:href="#DejaVuSans-3" transform="translate(317.203125 0)"/>
       <use xlink:href="#DejaVuSans-35" transform="translate(348.984375 0)"/>
       <use xlink:href="#DejaVuSans-24" transform="translate(414.421875 0)"/>
       <use xlink:href="#DejaVuSans-2a" transform="translate(481.078125 0)"/>
      </g>
     </g>
    </g>
    <g id="xtick_8">
     <g id="line2d_27">
      <path d="M 340.480476 165.550312 
L 340.480476 21.406312 
" clip-path="url(#p737d420112)" style="fill: none; stroke: #b0b0b0; stroke-opacity: 0.25; stroke-width: 0.5; stroke-linecap: square"/>
     </g>
     <g id="line2d_28">
      <g>
       <use xlink:href="#mf4aefbf04d" x="340.480476" y="165.550312" style="stroke: #000000; stroke-width: 0.8"/>
      </g>
     </g>
     <g id="text_18">
      <!-- graph, no judge -->
      <g transform="translate(272.734593 203.364823) rotate(-20) scale(0.09 -0.09)">
       <use xlink:href="#DejaVuSans-4a"/>
       <use xlink:href="#DejaVuSans-55" transform="translate(63.484375 0)"/>
       <use xlink:href="#DejaVuSans-44" transform="translate(104.59375 0)"/>
       <use xlink:href="#DejaVuSans-53" transform="translate(165.875 0)"/>
       <use xlink:href="#DejaVuSans-4b" transform="translate(229.359375 0)"/>
       <use xlink:href="#DejaVuSans-f" transform="translate(292.734375 0)"/>
       <use xlink:href="#DejaVuSans-3" transform="translate(324.515625 0)"/>
       <use xlink:href="#DejaVuSans-51" transform="translate(356.296875 0)"/>
       <use xlink:href="#DejaVuSans-52" transform="translate(419.671875 0)"/>
       <use xlink:href="#DejaVuSans-3" transform="translate(480.859375 0)"/>
       <use xlink:href="#DejaVuSans-4d" transform="translate(512.640625 0)"/>
       <use xlink:href="#DejaVuSans-58" transform="translate(540.421875 0)"/>
       <use xlink:href="#DejaVuSans-47" transform="translate(603.796875 0)"/>
       <use xlink:href="#DejaVuSans-4a" transform="translate(667.28125 0)"/>
       <use xlink:href="#DejaVuSans-48" transform="translate(730.765625 0)"/>
      </g>
     </g>
    </g>
    <g id="xtick_9">
     <g id="line2d_29">
      <path d="M 374.106509 165.550312 
L 374.106509 21.406312 
" clip-path="url(#p737d420112)" style="fill: none; stroke: #b0b0b0; stroke-opacity: 0.25; stroke-width: 0.5; stroke-linecap: square"/>
     </g>
     <g id="line2d_30">
      <g>
       <use xlink:href="#mf4aefbf04d" x="374.106509" y="165.550312" style="stroke: #000000; stroke-width: 0.8"/>
      </g>
     </g>
     <g id="text_19">
      <!-- graph + build judge -->
      <g transform="translate(289.011405 209.679423) rotate(-20) scale(0.09 -0.09)">
       <use xlink:href="#DejaVuSans-4a"/>
       <use xlink:href="#DejaVuSans-55" transform="translate(63.484375 0)"/>
       <use xlink:href="#DejaVuSans-44" transform="translate(104.59375 0)"/>
       <use xlink:href="#DejaVuSans-53" transform="translate(165.875 0)"/>
       <use xlink:href="#DejaVuSans-4b" transform="translate(229.359375 0)"/>
       <use xlink:href="#DejaVuSans-3" transform="translate(292.734375 0)"/>
       <use xlink:href="#DejaVuSans-e" transform="translate(324.515625 0)"/>
       <use xlink:href="#DejaVuSans-3" transform="translate(408.3125 0)"/>
       <use xlink:href="#DejaVuSans-45" transform="translate(440.09375 0)"/>
       <use xlink:href="#DejaVuSans-58" transform="translate(503.578125 0)"/>
       <use xlink:href="#DejaVuSans-4c" transform="translate(566.953125 0)"/>
       <use xlink:href="#DejaVuSans-4f" transform="translate(594.734375 0)"/>
       <use xlink:href="#DejaVuSans-47" transform="translate(622.515625 0)"/>
       <use xlink:href="#DejaVuSans-3" transform="translate(686 0)"/>
       <use xlink:href="#DejaVuSans-4d" transform="translate(717.78125 0)"/>
       <use xlink:href="#DejaVuSans-58" transform="translate(745.5625 0)"/>
       <use xlink:href="#DejaVuSans-47" transform="translate(808.9375 0)"/>
       <use xlink:href="#DejaVuSans-4a" transform="translate(872.421875 0)"/>
       <use xlink:href="#DejaVuSans-48" transform="translate(935.90625 0)"/>
      </g>
     </g>
    </g>
    <g id="xtick_10">
     <g id="line2d_31">
      <path d="M 407.732542 165.550312 
L 407.732542 21.406312 
" clip-path="url(#p737d420112)" style="fill: none; stroke: #b0b0b0; stroke-opacity: 0.25; stroke-width: 0.5; stroke-linecap: square"/>
     </g>
     <g id="line2d_32">
      <g>
       <use xlink:href="#mf4aefbf04d" x="407.732542" y="165.550312" style="stroke: #000000; stroke-width: 0.8"/>
      </g>
     </g>
     <g id="text_20">
      <!-- graph + both judges -->
      <g transform="translate(319.80955 210.70869) rotate(-20) scale(0.09 -0.09)">
       <use xlink:href="#DejaVuSans-4a"/>
       <use xlink:href="#DejaVuSans-55" transform="translate(63.484375 0)"/>
       <use xlink:href="#DejaVuSans-44" transform="translate(104.59375 0)"/>
       <use xlink:href="#DejaVuSans-53" transform="translate(165.875 0)"/>
       <use xlink:href="#DejaVuSans-4b" transform="translate(229.359375 0)"/>
       <use xlink:href="#DejaVuSans-3" transform="translate(292.734375 0)"/>
       <use xlink:href="#DejaVuSans-e" transform="translate(324.515625 0)"/>
       <use xlink:href="#DejaVuSans-3" transform="translate(408.3125 0)"/>
       <use xlink:href="#DejaVuSans-45" transform="translate(440.09375 0)"/>
       <use xlink:href="#DejaVuSans-52" transform="translate(503.578125 0)"/>
       <use xlink:href="#DejaVuSans-57" transform="translate(564.765625 0)"/>
       <use xlink:href="#DejaVuSans-4b" transform="translate(603.96875 0)"/>
       <use xlink:href="#DejaVuSans-3" transform="translate(667.34375 0)"/>
       <use xlink:href="#DejaVuSans-4d" transform="translate(699.125 0)"/>
       <use xlink:href="#DejaVuSans-58" transform="translate(726.90625 0)"/>
       <use xlink:href="#DejaVuSans-47" transform="translate(790.28125 0)"/>
       <use xlink:href="#DejaVuSans-4a" transform="translate(853.765625 0)"/>
       <use xlink:href="#DejaVuSans-48" transform="translate(917.25 0)"/>
       <use xlink:href="#DejaVuSans-56" transform="translate(978.78125 0)"/>
      </g>
     </g>
    </g>
   </g>
   <g id="matplotlib.axis_4">
    <g id="ytick_7">
     <g id="line2d_33">
      <path d="M 251.707749 165.550312 
L 429.253203 165.550312 
" clip-path="url(#p737d420112)" style="fill: none; stroke: #b0b0b0; stroke-opacity: 0.25; stroke-width: 0.5; stroke-linecap: square"/>
     </g>
     <g id="line2d_34">
      <g>
       <use xlink:href="#md4f9a960fe" x="251.707749" y="165.550312" style="stroke: #000000; stroke-width: 0.8"/>
      </g>
     </g>
     <g id="text_21">
      <!-- 0.0 -->
      <g transform="translate(230.394936 168.969258) scale(0.09 -0.09)">
       <defs>
        <path id="DejaVuSans-11" d="M 684 794 
L 1344 794 
L 1344 0 
L 684 0 
L 684 794 
z
" transform="scale(0.015625)"/>
       </defs>
       <use xlink:href="#DejaVuSans-13"/>
       <use xlink:href="#DejaVuSans-11" transform="translate(63.625 0)"/>
       <use xlink:href="#DejaVuSans-13" transform="translate(95.40625 0)"/>
      </g>
     </g>
    </g>
    <g id="ytick_8">
     <g id="line2d_35">
      <path d="M 251.707749 136.721512 
L 429.253203 136.721512 
" clip-path="url(#p737d420112)" style="fill: none; stroke: #b0b0b0; stroke-opacity: 0.25; stroke-width: 0.5; stroke-linecap: square"/>
     </g>
     <g id="line2d_36">
      <g>
       <use xlink:href="#md4f9a960fe" x="251.707749" y="136.721512" style="stroke: #000000; stroke-width: 0.8"/>
      </g>
     </g>
     <g id="text_22">
      <!-- 0.2 -->
      <g transform="translate(230.394936 140.140458) scale(0.09 -0.09)">
       <use xlink:href="#DejaVuSans-13"/>
       <use xlink:href="#DejaVuSans-11" transform="translate(63.625 0)"/>
       <use xlink:href="#DejaVuSans-15" transform="translate(95.40625 0)"/>
      </g>
     </g>
    </g>
    <g id="ytick_9">
     <g id="line2d_37">
      <path d="M 251.707749 107.892712 
L 429.253203 107.892712 
" clip-path="url(#p737d420112)" style="fill: none; stroke: #b0b0b0; stroke-opacity: 0.25; stroke-width: 0.5; stroke-linecap: square"/>
     </g>
     <g id="line2d_38">
      <g>
       <use xlink:href="#md4f9a960fe" x="251.707749" y="107.892712" style="stroke: #000000; stroke-width: 0.8"/>
      </g>
     </g>
     <g id="text_23">
      <!-- 0.4 -->
      <g transform="translate(230.394936 111.311658) scale(0.09 -0.09)">
       <defs>
        <path id="DejaVuSans-17" d="M 2419 4116 
L 825 1625 
L 2419 1625 
L 2419 4116 
z
M 2253 4666 
L 3047 4666 
L 3047 1625 
L 3713 1625 
L 3713 1100 
L 3047 1100 
L 3047 0 
L 2419 0 
L 2419 1100 
L 313 1100 
L 313 1709 
L 2253 4666 
z
" transform="scale(0.015625)"/>
       </defs>
       <use xlink:href="#DejaVuSans-13"/>
       <use xlink:href="#DejaVuSans-11" transform="translate(63.625 0)"/>
       <use xlink:href="#DejaVuSans-17" transform="translate(95.40625 0)"/>
      </g>
     </g>
    </g>
    <g id="ytick_10">
     <g id="line2d_39">
      <path d="M 251.707749 79.063912 
L 429.253203 79.063912 
" clip-path="url(#p737d420112)" style="fill: none; stroke: #b0b0b0; stroke-opacity: 0.25; stroke-width: 0.5; stroke-linecap: square"/>
     </g>
     <g id="line2d_40">
      <g>
       <use xlink:href="#md4f9a960fe" x="251.707749" y="79.063912" style="stroke: #000000; stroke-width: 0.8"/>
      </g>
     </g>
     <g id="text_24">
      <!-- 0.6 -->
      <g transform="translate(230.394936 82.482858) scale(0.09 -0.09)">
       <defs>
        <path id="DejaVuSans-19" d="M 2113 2584 
Q 1688 2584 1439 2293 
Q 1191 2003 1191 1497 
Q 1191 994 1439 701 
Q 1688 409 2113 409 
Q 2538 409 2786 701 
Q 3034 994 3034 1497 
Q 3034 2003 2786 2293 
Q 2538 2584 2113 2584 
z
M 3366 4563 
L 3366 3988 
Q 3128 4100 2886 4159 
Q 2644 4219 2406 4219 
Q 1781 4219 1451 3797 
Q 1122 3375 1075 2522 
Q 1259 2794 1537 2939 
Q 1816 3084 2150 3084 
Q 2853 3084 3261 2657 
Q 3669 2231 3669 1497 
Q 3669 778 3244 343 
Q 2819 -91 2113 -91 
Q 1303 -91 875 529 
Q 447 1150 447 2328 
Q 447 3434 972 4092 
Q 1497 4750 2381 4750 
Q 2619 4750 2861 4703 
Q 3103 4656 3366 4563 
z
" transform="scale(0.015625)"/>
       </defs>
       <use xlink:href="#DejaVuSans-13"/>
       <use xlink:href="#DejaVuSans-11" transform="translate(63.625 0)"/>
       <use xlink:href="#DejaVuSans-19" transform="translate(95.40625 0)"/>
      </g>
     </g>
    </g>
    <g id="ytick_11">
     <g id="line2d_41">
      <path d="M 251.707749 50.235112 
L 429.253203 50.235112 
" clip-path="url(#p737d420112)" style="fill: none; stroke: #b0b0b0; stroke-opacity: 0.25; stroke-width: 0.5; stroke-linecap: square"/>
     </g>
     <g id="line2d_42">
      <g>
       <use xlink:href="#md4f9a960fe" x="251.707749" y="50.235112" style="stroke: #000000; stroke-width: 0.8"/>
      </g>
     </g>
     <g id="text_25">
      <!-- 0.8 -->
      <g transform="translate(230.394936 53.654058) scale(0.09 -0.09)">
       <defs>
        <path id="DejaVuSans-1b" d="M 2034 2216 
Q 1584 2216 1326 1975 
Q 1069 1734 1069 1313 
Q 1069 891 1326 650 
Q 1584 409 2034 409 
Q 2484 409 2743 651 
Q 3003 894 3003 1313 
Q 3003 1734 2745 1975 
Q 2488 2216 2034 2216 
z
M 1403 2484 
Q 997 2584 770 2862 
Q 544 3141 544 3541 
Q 544 4100 942 4425 
Q 1341 4750 2034 4750 
Q 2731 4750 3128 4425 
Q 3525 4100 3525 3541 
Q 3525 3141 3298 2862 
Q 3072 2584 2669 2484 
Q 3125 2378 3379 2068 
Q 3634 1759 3634 1313 
Q 3634 634 3220 271 
Q 2806 -91 2034 -91 
Q 1263 -91 848 271 
Q 434 634 434 1313 
Q 434 1759 690 2068 
Q 947 2378 1403 2484 
z
M 1172 3481 
Q 1172 3119 1398 2916 
Q 1625 2713 2034 2713 
Q 2441 2713 2670 2916 
Q 2900 3119 2900 3481 
Q 2900 3844 2670 4047 
Q 2441 4250 2034 4250 
Q 1625 4250 1398 4047 
Q 1172 3844 1172 3481 
z
" transform="scale(0.015625)"/>
       </defs>
       <use xlink:href="#DejaVuSans-13"/>
       <use xlink:href="#DejaVuSans-11" transform="translate(63.625 0)"/>
       <use xlink:href="#DejaVuSans-1b" transform="translate(95.40625 0)"/>
      </g>
     </g>
    </g>
    <g id="ytick_12">
     <g id="line2d_43">
      <path d="M 251.707749 21.406312 
L 429.253203 21.406312 
" clip-path="url(#p737d420112)" style="fill: none; stroke: #b0b0b0; stroke-opacity: 0.25; stroke-width: 0.5; stroke-linecap: square"/>
     </g>
     <g id="line2d_44">
      <g>
       <use xlink:href="#md4f9a960fe" x="251.707749" y="21.406312" style="stroke: #000000; stroke-width: 0.8"/>
      </g>
     </g>
     <g id="text_26">
      <!-- 1.0 -->
      <g transform="translate(230.394936 24.825258) scale(0.09 -0.09)">
       <use xlink:href="#DejaVuSans-14"/>
       <use xlink:href="#DejaVuSans-11" transform="translate(63.625 0)"/>
       <use xlink:href="#DejaVuSans-13" transform="translate(95.40625 0)"/>
      </g>
     </g>
    </g>
    <g id="text_27">
     <!-- article-level completeness -->
     <g transform="translate(224.232827 152.677922) rotate(-90) scale(0.09 -0.09)">
      <use xlink:href="#DejaVuSans-44"/>
      <use xlink:href="#DejaVuSans-55" transform="translate(61.28125 0)"/>
      <use xlink:href="#DejaVuSans-57" transform="translate(102.390625 0)"/>
      <use xlink:href="#DejaVuSans-4c" transform="translate(141.59375 0)"/>
      <use xlink:href="#DejaVuSans-46" transform="translate(169.375 0)"/>
      <use xlink:href="#DejaVuSans-4f" transform="translate(224.359375 0)"/>
      <use xlink:href="#DejaVuSans-48" transform="translate(252.140625 0)"/>
      <use xlink:href="#DejaVuSans-10" transform="translate(313.671875 0)"/>
      <use xlink:href="#DejaVuSans-4f" transform="translate(349.75 0)"/>
      <use xlink:href="#DejaVuSans-48" transform="translate(377.53125 0)"/>
      <use xlink:href="#DejaVuSans-59" transform="translate(439.0625 0)"/>
      <use xlink:href="#DejaVuSans-48" transform="translate(498.25 0)"/>
      <use xlink:href="#DejaVuSans-4f" transform="translate(559.78125 0)"/>
      <use xlink:href="#DejaVuSans-3" transform="translate(587.5625 0)"/>
      <use xlink:href="#DejaVuSans-46" transform="translate(619.34375 0)"/>
      <use xlink:href="#DejaVuSans-52" transform="translate(674.328125 0)"/>
      <use xlink:href="#DejaVuSans-50" transform="translate(735.515625 0)"/>
      <use xlink:href="#DejaVuSans-53" transform="translate(832.921875 0)"/>
      <use xlink:href="#DejaVuSans-4f" transform="translate(896.40625 0)"/>
      <use xlink:href="#DejaVuSans-48" transform="translate(924.1875 0)"/>
      <use xlink:href="#DejaVuSans-57" transform="translate(985.71875 0)"/>
      <use xlink:href="#DejaVuSans-48" transform="translate(1024.921875 0)"/>
      <use xlink:href="#DejaVuSans-51" transform="translate(1086.453125 0)"/>
      <use xlink:href="#DejaVuSans-48" transform="translate(1149.828125 0)"/>
      <use xlink:href="#DejaVuSans-56" transform="translate(1211.359375 0)"/>
      <use xlink:href="#DejaVuSans-56" transform="translate(1263.453125 0)"/>
     </g>
    </g>
   </g>
   <g id="patch_23">
    <path d="M 251.707749 165.550312 
L 251.707749 21.406312 
" style="fill: none; stroke: #000000; stroke-width: 0.8; stroke-linejoin: miter; stroke-linecap: square"/>
   </g>
   <g id="patch_24">
    <path d="M 251.707749 165.550312 
L 429.253203 165.550312 
" style="fill: none; stroke: #000000; stroke-width: 0.8; stroke-linejoin: miter; stroke-linecap: square"/>
   </g>
   <g id="text_28">
    <!-- Checkable citations (run 2) -->
    <g transform="translate(267.488507 15.406312) scale(0.108 -0.108)">
     <use xlink:href="#DejaVuSans-26"/>
     <use xlink:href="#DejaVuSans-4b" transform="translate(69.828125 0)"/>
     <use xlink:href="#DejaVuSans-48" transform="translate(133.203125 0)"/>
     <use xlink:href="#DejaVuSans-46" transform="translate(194.734375 0)"/>
     <use xlink:href="#DejaVuSans-4e" transform="translate(249.71875 0)"/>
     <use xlink:href="#DejaVuSans-44" transform="translate(305.875 0)"/>
     <use xlink:href="#DejaVuSans-45" transform="translate(367.15625 0)"/>
     <use xlink:href="#DejaVuSans-4f" transform="translate(430.640625 0)"/>
     <use xlink:href="#DejaVuSans-48" transform="translate(458.421875 0)"/>
     <use xlink:href="#DejaVuSans-3" transform="translate(519.953125 0)"/>
     <use xlink:href="#DejaVuSans-46" transform="translate(551.734375 0)"/>
     <use xlink:href="#DejaVuSans-4c" transform="translate(606.71875 0)"/>
     <use xlink:href="#DejaVuSans-57" transform="translate(634.5 0)"/>
     <use xlink:href="#DejaVuSans-44" transform="translate(673.703125 0)"/>
     <use xlink:href="#DejaVuSans-57" transform="translate(734.984375 0)"/>
     <use xlink:href="#DejaVuSans-4c" transform="translate(774.1875 0)"/>
     <use xlink:href="#DejaVuSans-52" transform="translate(801.96875 0)"/>
     <use xlink:href="#DejaVuSans-51" transform="translate(863.15625 0)"/>
     <use xlink:href="#DejaVuSans-56" transform="translate(926.53125 0)"/>
     <use xlink:href="#DejaVuSans-3" transform="translate(978.625 0)"/>
     <use xlink:href="#DejaVuSans-b" transform="translate(1010.40625 0)"/>
     <use xlink:href="#DejaVuSans-55" transform="translate(1049.421875 0)"/>
     <use xlink:href="#DejaVuSans-58" transform="translate(1090.53125 0)"/>
     <use xlink:href="#DejaVuSans-51" transform="translate(1153.90625 0)"/>
     <use xlink:href="#DejaVuSans-3" transform="translate(1217.28125 0)"/>
     <use xlink:href="#DejaVuSans-15" transform="translate(1249.0625 0)"/>
     <use xlink:href="#DejaVuSans-c" transform="translate(1312.6875 0)"/>
    </g>
   </g>
  </g>
 </g>
 <defs>
  <clipPath id="pe2f8473452">
   <rect x="38.653203" y="21.406312" width="177.545455" height="144.144"/>
  </clipPath>
  <clipPath id="p737d420112">
   <rect x="251.707749" y="21.406312" width="177.545455" height="144.144"/>
  </clipPath>
 </defs>
</svg>
